<svg xmlns="http://www.w3.org/2000/svg" width="160" height="18" viewBox="0 0 160 18"><defs><style>.a{fill:#333;}</style></defs><path class="a" d="M33.41,1A6.7,6.7,0,0,1,36,3.58a7.91,7.91,0,0,1,1,3.83,7.65,7.65,0,0,1-1,3.82,6.93,6.93,0,0,1-2.6,2.69,7.34,7.34,0,0,1-7.33,0,6.38,6.38,0,0,1-2.61-2.69,7.86,7.86,0,0,1-1-3.82,7.65,7.65,0,0,1,1-3.83A6.17,6.17,0,0,1,26.08,1a7.28,7.28,0,0,1,3.66-1A7.53,7.53,0,0,1,33.41,1ZM27.46,3.34A4.08,4.08,0,0,0,25.92,5a5.38,5.38,0,0,0-.57,2.52A5.41,5.41,0,0,0,25.92,10a3.73,3.73,0,0,0,1.54,1.63,4.3,4.3,0,0,0,2.2.65,4.49,4.49,0,0,0,2.28-.57,4.25,4.25,0,0,0,1.55-1.63,5.5,5.5,0,0,0,.57-2.52,5.5,5.5,0,0,0-.57-2.52,3.76,3.76,0,0,0-1.55-1.63,4.3,4.3,0,0,0-2.28-.57A3.06,3.06,0,0,0,27.46,3.34Z"/><path class="a" d="M50.26,1.38a5.82,5.82,0,0,1,2.19,3.5h-3a3.15,3.15,0,0,0-1.38-1.54,4.21,4.21,0,0,0-2.2-.57,4,4,0,0,0-2.2.57A3.89,3.89,0,0,0,42.2,5a5.06,5.06,0,0,0-.57,2.44A4.82,4.82,0,0,0,42.85,11a4.67,4.67,0,0,0,3.34,1.3,4.43,4.43,0,0,0,2.68-.89,4,4,0,0,0,1.47-2.61h-5v-2H52.7V9.52a8.11,8.11,0,0,1-1.22,2.69,6.9,6.9,0,0,1-2.36,1.95,8,8,0,0,1-3.34.74A8.49,8.49,0,0,1,42,14a6.57,6.57,0,0,1-2.52-2.6,8,8,0,0,1-.9-3.83,7.83,7.83,0,0,1,.9-3.83A6.57,6.57,0,0,1,42,1.14a6.77,6.77,0,0,1,3.75-.9A6.48,6.48,0,0,1,50.26,1.38Z"/><path class="a" d="M57.74.24V8.79a3.91,3.91,0,0,0,.74,2.61,2.75,2.75,0,0,0,2.19.81,2.5,2.5,0,0,0,2.12-.81,3.63,3.63,0,0,0,.73-2.61V.24h2.85V8.79a7.21,7.21,0,0,1-.73,3.42,4.93,4.93,0,0,1-2,2,5.74,5.74,0,0,1-3,.65,5.83,5.83,0,0,1-4.23-1.55,6.19,6.19,0,0,1-1.55-4.56V.24Z"/><path class="a" d="M71.91,2.52V6.27H77v2.2H71.91v3.9h5.78v2.36H69.06V.24h8.71V2.52Z"/><path class="a" d="M95.51.41V14.82H92.67V4.8L89,14.82H86.48l-3.66-10v10H79.89V.41h3.5l4.39,10.82L92.1.41Z"/><path class="a" d="M108.7,1a6.66,6.66,0,0,1,2.61,2.6,7.9,7.9,0,0,1,1,3.83,7.64,7.64,0,0,1-1,3.82,6.89,6.89,0,0,1-2.61,2.69,7.78,7.78,0,0,1-7.32,0,6.38,6.38,0,0,1-2.61-2.69,7.87,7.87,0,0,1-1-3.82,7.66,7.66,0,0,1,1-3.83A6.36,6.36,0,0,1,101.38.9,8,8,0,0,1,108.7,1Zm-5.94,2.36A4.18,4.18,0,0,0,101.21,5a5.5,5.5,0,0,0-.57,2.52,5.53,5.53,0,0,0,.57,2.52,4.32,4.32,0,0,0,1.55,1.63,4.86,4.86,0,0,0,4.48,0A4.22,4.22,0,0,0,108.78,10a5.41,5.41,0,0,0,.57-2.52A5.38,5.38,0,0,0,108.78,5a3.63,3.63,0,0,0-1.54-1.63,4.39,4.39,0,0,0-4.48,0Z"/><path class="a" d="M126.77,14.82h-2.93L117.33,5v9.85H114.4V.24h2.93l6.51,9.94V.24h2.93V14.82Z"/><path class="a" d="M130.6,12.94v1.88h-1.95V12.94Z"/><path class="a" d="M137.36,8.38a2.9,2.9,0,0,1,1.13,2h-2a1.53,1.53,0,0,0-.57-.9,1.65,1.65,0,0,0-1.06-.32,1.46,1.46,0,0,0-1.22.57,2.55,2.55,0,0,0-.49,1.54,1.81,1.81,0,0,0,.49,1.55,1.72,1.72,0,0,0,1.22.57,1.65,1.65,0,0,0,1.06-.32,2.06,2.06,0,0,0,.57-.9h2a2.9,2.9,0,0,1-1.13,2,3.41,3.41,0,0,1-2.28.73,3.74,3.74,0,0,1-1.88-.49,3.38,3.38,0,0,1-1.3-1.3,4.15,4.15,0,0,1,0-3.91A3.32,3.32,0,0,1,133.2,8a3.74,3.74,0,0,1,1.88-.49A4,4,0,0,1,137.36,8.38Z"/><path class="a" d="M145,8.06a3.32,3.32,0,0,1,1.3,1.3,4.15,4.15,0,0,1,0,3.91,3.32,3.32,0,0,1-1.3,1.3,4.32,4.32,0,0,1-3.75,0,3.32,3.32,0,0,1-1.3-1.3,4.15,4.15,0,0,1,0-3.91,3.32,3.32,0,0,1,1.3-1.3A4.32,4.32,0,0,1,145,8.06Zm-3.18,1.71a2.18,2.18,0,0,0-.57,1.54,2.19,2.19,0,0,0,.57,1.55,1.83,1.83,0,0,0,2.61,0h0a2.19,2.19,0,0,0,.57-1.55,2.18,2.18,0,0,0-.57-1.54,1.83,1.83,0,0,0-2.61,0Z"/><path class="a" d="M159.25,8.38a3,3,0,0,1,.73,2.28v4.16h-1.79v-4a2,2,0,0,0-.4-1.31,1.69,1.69,0,0,0-2.36,0,2.21,2.21,0,0,0-.49,1.39v3.82h-1.79v-3.9a1.92,1.92,0,0,0-.41-1.31A1.62,1.62,0,0,0,151.6,9a1.66,1.66,0,0,0-1.22.48,2.21,2.21,0,0,0-.49,1.39v3.82H148.1V7.65h1.79V9a1.89,1.89,0,0,1,.9-1.06,2.65,2.65,0,0,1,1.38-.41,2.78,2.78,0,0,1,1.47.41,2.42,2.42,0,0,1,1,1.22,2.82,2.82,0,0,1,3.83-1.3,2.72,2.72,0,0,1,.81.48Z"/><path class="a" d="M4.67,14.28a3.18,3.18,0,0,1-1.59-.39,2.56,2.56,0,0,1-1-1.05v.35c0,.7-.34,1.06-1,1.06a.93.93,0,0,1-1-1.06V3.35a.91.91,0,0,1,1-1,.92.92,0,0,1,1,1V7.21a2.65,2.65,0,0,1,1.05-1,3.32,3.32,0,0,1,1.55-.37,3.38,3.38,0,0,1,1.87.51A3.53,3.53,0,0,1,7.78,7.81a5.19,5.19,0,0,1,.45,2.25,5.18,5.18,0,0,1-.45,2.24,3.27,3.27,0,0,1-3.11,2Zm-.58-1.57A1.86,1.86,0,0,0,5.58,12a3,3,0,0,0,.56-2,2.93,2.93,0,0,0-.56-2,1.85,1.85,0,0,0-1.49-.66,1.85,1.85,0,0,0-1.49.66,2.93,2.93,0,0,0-.56,2,3,3,0,0,0,.56,2A1.86,1.86,0,0,0,4.09,12.71Z"/><path class="a" d="M12,17.23a.79.79,0,0,1-.78-.42,1,1,0,0,1,0-.94l.94-2.09L9.34,7.26a1,1,0,0,1,0-1,.94.94,0,0,1,.91-.42,1,1,0,0,1,.61.18,1.43,1.43,0,0,1,.42.65l2,5,2-5a1.37,1.37,0,0,1,.43-.64,1.12,1.12,0,0,1,.66-.18.76.76,0,0,1,.75.42,1,1,0,0,1,0,.94l-4,9.19a1.51,1.51,0,0,1-.47.63A1.13,1.13,0,0,1,12,17.23Z"/></svg>